<?xml version="1.0" standalone="no"?><!DOCTYPE svg PUBLIC "-//W3C//DTD SVG 1.1//EN"
        "http://www.w3.org/Graphics/SVG/1.1/DTD/svg11.dtd">
<svg t="1709370118164" class="icon" viewBox="0 0 1024 1024" version="1.1" xmlns="http://www.w3.org/2000/svg" p-id="5906"
     width="30" height="30" xmlns:xlink="http://www.w3.org/1999/xlink">
    <path d="M451.669333 512L55.108267 908.544a42.7776 42.7776 0 0 0 0 60.330667 42.7776 42.7776 0 0 0 60.330666 0L512 572.356267l396.544 396.561066c16.597333 16.597333 43.776 16.597333 60.330667 0 16.597333-16.597333 16.597333-43.776 0-60.373333L572.347733 512l396.561067-396.544c16.597333-16.597333 16.597333-43.776 0-60.330667-16.597333-16.597333-43.776-16.597333-60.373333 0L512 451.6608 115.456 55.125333a42.7776 42.7776 0 0 0-60.330667 0 42.7776 42.7776 0 0 0 0 60.330667L451.669333 512z"
          fill="#707070" p-id="5907"></path>
</svg>